# xmcd
#
# Track frame offsets:
#	150
#	11338
#	25028
#	38342
#	51572
#	64460
#	76991
#	91277
#	104658
#	116744
#	130259
#	144088
#	157240
#	172897
#	184403
#	197178
#	210178
#	223545
#	237947
#	253301
#	269761
#	283211
#	297555
#
# Disc length: 4114 seconds
#
# Revision: 3
# Processed by: cddbd v1.5.1PL0 Copyright (c) Steve Scherf et al.
# Submitted via: EasyCDDAExtractor 7.5.0.1
#
DISCID=62101017
DTITLE=Various Artist - Kentucky Mountain Music (Classic Recordings Of The 19
DTITLE=20s and 30s) - Disc 7
DYEAR=2003
DGENRE=Bluegrass
TTITLE0=Clifford Gross - Rocky Mountain Goat
TTITLE1=Buell Kazee - The Orphan Girl
TTITLE2=Doc Roberts Trio - Honeymoon Stomp
TTITLE3=George Roark - I Ain't A Bit Drunk
TTITLE4=Mangrum and Shriver - Bacon And Cabbage
TTITLE5=Howard and Peak - I Cannot Be Your Sweetheart
TTITLE6=J. W. Day - Little Boy Working On The Road
TTITLE7=Martin and Hobbs - I Must See My Mothers
TTITLE8=Kentucky Woodchoppers - New Harmony Waltz
TTITLE9=Crockett Family Mountaineers - Sugar Hill
TTITLE10=Hack's String Band - Kentucky Plowboy's March
TTITLE11=Oaks Family - You'll Miss Me When I'm Gone
TTITLE12=Kentucky String Ticklers - Tipple Blues
TTITLE13=Ted Chesnut - He's Only A Miner Killed In The Ground
TTITLE14=Doc Roberts - Rye Straw
TTITLE15=Rutherford, Moore and Burnett - She's A Flower From The Fields Of Alaba
TTITLE15=ma
TTITLE16=Jimmy Johnson's String Band - Ching Chow
TTITLE17=Shortbuckle Roark and Family - My Mother's Hands
TTITLE18=Madisonville String Band - My Pretty Snow Deer
TTITLE19=Walter Family - Walter Family Waltz
TTITLE20=Henry L. Bandy - Going Across The Sea
TTITLE21=Taylor, Moore and Burnett - Knoxville Rag
TTITLE22=Buell Kazee - I'm Rolling Along
EXTD=
EXTT0=
EXTT1=
EXTT2=
EXTT3=
EXTT4=
EXTT5=
EXTT6=
EXTT7=
EXTT8=
EXTT9=
EXTT10=
EXTT11=
EXTT12=
EXTT13=
EXTT14=
EXTT15=
EXTT16=
EXTT17=
EXTT18=
EXTT19=
EXTT20=
EXTT21=
EXTT22=
PLAYORDER=
